<?xml version="1.0" encoding="UTF-8" standalone="no"?>
<!DOCTYPE svg PUBLIC "-//W3C//DTD SVG 1.1//EN"
 "http://www.w3.org/Graphics/SVG/1.1/DTD/svg11.dtd">
<!-- Generated by graphviz version 12.2.1 (20241206.2353)
 -->
<!-- Title: RedBlackTree Pages: 1 -->
<svg width="170pt" height="332pt"
 viewBox="0.00 0.00 170.00 332.00" xmlns="http://www.w3.org/2000/svg" xmlns:xlink="http://www.w3.org/1999/xlink">
<g id="graph0" class="graph" transform="scale(1 1) rotate(0) translate(4 328)">
<title>RedBlackTree</title>
<polygon fill="white" stroke="none" points="-4,4 -4,-328 166,-328 166,4 -4,4"/>
<!-- n30 -->
<g id="node1" class="node">
<title>n30</title>
<ellipse fill="black" stroke="black" cx="99" cy="-306" rx="27" ry="18"/>
<text text-anchor="middle" x="99" y="-300.57" font-family="Arial" font-size="14.00" fill="white">30</text>
</g>
<!-- n4 -->
<g id="node2" class="node">
<title>n4</title>
<ellipse fill="black" stroke="black" cx="63" cy="-234" rx="27" ry="18"/>
<text text-anchor="middle" x="63" y="-228.57" font-family="Arial" font-size="14.00" fill="white">4</text>
</g>
<!-- n30&#45;&gt;n4 -->
<g id="edge1" class="edge">
<title>n30&#45;&gt;n4</title>
<path fill="none" stroke="black" d="M90.65,-288.76C86.42,-280.55 81.19,-270.37 76.42,-261.09"/>
<polygon fill="black" stroke="black" points="79.68,-259.79 72,-252.49 73.46,-262.99 79.68,-259.79"/>
</g>
<!-- n45 -->
<g id="node3" class="node">
<title>n45</title>
<ellipse fill="black" stroke="black" cx="135" cy="-234" rx="27" ry="18"/>
<text text-anchor="middle" x="135" y="-228.57" font-family="Arial" font-size="14.00" fill="white">45</text>
</g>
<!-- n30&#45;&gt;n45 -->
<g id="edge2" class="edge">
<title>n30&#45;&gt;n45</title>
<path fill="none" stroke="black" d="M107.35,-288.76C111.58,-280.55 116.81,-270.37 121.58,-261.09"/>
<polygon fill="black" stroke="black" points="124.54,-262.99 126,-252.49 118.32,-259.79 124.54,-262.99"/>
</g>
<!-- n1 -->
<g id="node4" class="node">
<title>n1</title>
<ellipse fill="black" stroke="black" cx="27" cy="-162" rx="27" ry="18"/>
<text text-anchor="middle" x="27" y="-156.57" font-family="Arial" font-size="14.00" fill="white">1</text>
</g>
<!-- n4&#45;&gt;n1 -->
<g id="edge3" class="edge">
<title>n4&#45;&gt;n1</title>
<path fill="none" stroke="black" d="M54.65,-216.76C50.42,-208.55 45.19,-198.37 40.42,-189.09"/>
<polygon fill="black" stroke="black" points="43.68,-187.79 36,-180.49 37.46,-190.99 43.68,-187.79"/>
</g>
<!-- n20 -->
<g id="node5" class="node">
<title>n20</title>
<ellipse fill="red" stroke="black" cx="99" cy="-162" rx="27" ry="18"/>
<text text-anchor="middle" x="99" y="-156.57" font-family="Arial" font-size="14.00">20</text>
</g>
<!-- n4&#45;&gt;n20 -->
<g id="edge4" class="edge">
<title>n4&#45;&gt;n20</title>
<path fill="none" stroke="black" d="M71.35,-216.76C75.58,-208.55 80.81,-198.37 85.58,-189.09"/>
<polygon fill="black" stroke="black" points="88.54,-190.99 90,-180.49 82.32,-187.79 88.54,-190.99"/>
</g>
<!-- n8 -->
<g id="node6" class="node">
<title>n8</title>
<ellipse fill="black" stroke="black" cx="63" cy="-90" rx="27" ry="18"/>
<text text-anchor="middle" x="63" y="-84.58" font-family="Arial" font-size="14.00" fill="white">8</text>
</g>
<!-- n20&#45;&gt;n8 -->
<g id="edge5" class="edge">
<title>n20&#45;&gt;n8</title>
<path fill="none" stroke="black" d="M90.65,-144.76C86.42,-136.55 81.19,-126.37 76.42,-117.09"/>
<polygon fill="black" stroke="black" points="79.68,-115.79 72,-108.49 73.46,-118.99 79.68,-115.79"/>
</g>
<!-- n25 -->
<g id="node7" class="node">
<title>n25</title>
<ellipse fill="black" stroke="black" cx="135" cy="-90" rx="27" ry="18"/>
<text text-anchor="middle" x="135" y="-84.58" font-family="Arial" font-size="14.00" fill="white">25</text>
</g>
<!-- n20&#45;&gt;n25 -->
<g id="edge6" class="edge">
<title>n20&#45;&gt;n25</title>
<path fill="none" stroke="black" d="M107.35,-144.76C111.58,-136.55 116.81,-126.37 121.58,-117.09"/>
<polygon fill="black" stroke="black" points="124.54,-118.99 126,-108.49 118.32,-115.79 124.54,-118.99"/>
</g>
<!-- n10 -->
<g id="node8" class="node">
<title>n10</title>
<ellipse fill="red" stroke="black" cx="63" cy="-18" rx="27" ry="18"/>
<text text-anchor="middle" x="63" y="-12.57" font-family="Arial" font-size="14.00">10</text>
</g>
<!-- n8&#45;&gt;n10 -->
<g id="edge7" class="edge">
<title>n8&#45;&gt;n10</title>
<path fill="none" stroke="black" d="M63,-71.7C63,-64.41 63,-55.73 63,-47.54"/>
<polygon fill="black" stroke="black" points="66.5,-47.62 63,-37.62 59.5,-47.62 66.5,-47.62"/>
</g>
</g>
</svg>
